<svg width="30" height="28" viewBox="0 0 30 28" fill="none" xmlns="http://www.w3.org/2000/svg">
<path d="M24.0697 0H20.5814C20.1961 0 19.8837 0.317368 19.8837 0.708861V0.792375L24.7674 4.762V0.708861C24.7674 0.317368 24.4551 0 24.0697 0Z" fill="#6077E6"/>
<path fill-rule="evenodd" clip-rule="evenodd" d="M13.2558 9.21519C13.2558 8.23646 14.0367 7.44304 15 7.44304C15.9633 7.44304 16.7442 8.23646 16.7442 9.21519C16.7442 10.1939 15.9633 10.9873 15 10.9873C14.0367 10.9873 13.2558 10.1939 13.2558 9.21519Z" fill="#6077E6"/>
<path fill-rule="evenodd" clip-rule="evenodd" d="M27.2093 11.2857L28.2997 12.1721C28.751 12.5389 29.4096 12.4646 29.7706 12.006C30.1317 11.5474 30.0585 10.8783 29.6072 10.5115L18.2687 1.29525C16.3577 -0.25808 13.6423 -0.25808 11.7313 1.29525L0.392799 10.5115C-0.058521 10.8783 -0.131694 11.5474 0.229361 12.006C0.590417 12.4646 1.24898 12.5389 1.7003 12.1721L2.79073 11.2857V25.8734H1.04655C0.468577 25.8734 3.85905e-05 26.3495 3.85905e-05 26.9367C3.85905e-05 27.5239 0.468577 28 1.04655 28H28.9535C29.5314 28 30 27.5239 30 26.9367C30 26.3495 29.5314 25.8734 28.9535 25.8734H27.2093V11.2857ZM11.1628 9.21519C11.1628 7.06198 12.8808 5.31646 15 5.31646C17.1192 5.31646 18.8372 7.06198 18.8372 9.21519C18.8372 11.3684 17.1192 13.1139 15 13.1139C12.8808 13.1139 11.1628 11.3684 11.1628 9.21519ZM15.0689 14.5316C15.9966 14.5316 16.7959 14.5315 17.4361 14.619C18.1221 14.7127 18.7796 14.924 19.313 15.4659C19.8464 16.0079 20.0544 16.676 20.1466 17.373C20.2273 17.9827 20.2323 18.7346 20.2325 19.6029C20.2326 19.6608 20.2326 19.7192 20.2325 19.7781L20.2325 25.8734H18.1395V19.8481C18.1395 18.8156 18.1373 18.1481 18.0722 17.6563C18.0112 17.1952 17.9127 17.0506 17.833 16.9697C17.7533 16.8887 17.6111 16.7886 17.1572 16.7266C16.6731 16.6605 16.0162 16.6582 15 16.6582C13.9838 16.6582 13.3269 16.6605 12.8428 16.7266C12.3889 16.7886 12.2467 16.8887 12.167 16.9697C12.0873 17.0506 11.9888 17.1952 11.9278 17.6563C11.8627 18.1481 11.8605 18.8156 11.8605 19.8481V25.8734H9.76746L9.76745 19.7781C9.7674 18.8355 9.76736 18.0234 9.85342 17.373C9.94565 16.676 10.1536 16.0079 10.687 15.4659C11.2204 14.924 11.8779 14.7127 12.5639 14.619C13.2041 14.5315 14.0034 14.5316 14.9311 14.5316H15.0689Z" fill="#6077E6"/>
<path fill-rule="evenodd" clip-rule="evenodd" d="M13.2558 9.21519C13.2558 8.23646 14.0367 7.44304 15 7.44304C15.9633 7.44304 16.7442 8.23646 16.7442 9.21519C16.7442 10.1939 15.9633 10.9873 15 10.9873C14.0367 10.9873 13.2558 10.1939 13.2558 9.21519Z" fill="#6077E6"/>
</svg>
