<svg width="26" height="26" viewBox="0 0 26 26" fill="none" xmlns="http://www.w3.org/2000/svg">
<rect width="26" height="26" rx="5" fill="#337EDA"/>
<g clip-path="url(#clip0_1134_3783)">
<path d="M15.5828 5.53906C15.1317 5.63574 14.701 5.82617 14.3524 6.08691C14.0535 6.3125 10.0311 10.3525 9.87874 10.5811C9.48323 11.1729 9.3221 11.7529 9.34847 12.4766C9.37776 13.2646 9.63851 13.8857 10.1746 14.4512C10.7108 15.0225 11.4344 15.3682 12.1961 15.418L12.4627 15.4355L13.2742 14.6182C13.9715 13.918 14.0858 13.7891 14.1034 13.6924C14.1619 13.3818 13.9686 13.1387 13.6639 13.1387C13.5174 13.1387 13.45 13.1709 13.2684 13.3232C12.7996 13.71 12.1961 13.7451 11.6951 13.4111C11.3055 13.1475 11.1092 12.7461 11.1356 12.251C11.1473 12.04 11.1649 11.9727 11.2586 11.7764C11.367 11.5537 11.4285 11.4922 13.368 9.55273C14.4637 8.4541 15.4217 7.51953 15.492 7.47559C15.7 7.34668 15.9256 7.28223 16.1717 7.2793C16.45 7.27637 16.6639 7.33789 16.8895 7.48437C17.4403 7.8418 17.6366 8.5332 17.3553 9.125C17.2616 9.32422 17.1942 9.40625 16.6844 9.91602L16.119 10.4873L16.4295 10.7979C16.7342 11.0996 16.9979 11.4512 17.1385 11.7441C17.1766 11.8232 17.2205 11.8848 17.2381 11.8848C17.2879 11.8848 18.5037 10.6426 18.6619 10.4316C19.5848 9.19531 19.4471 7.43457 18.3426 6.35644C17.9705 5.99316 17.4871 5.7207 16.9657 5.58008C16.6756 5.50098 15.8758 5.47754 15.5828 5.53906Z" fill="white"/>
<path d="M12.8252 11.2906C12.3945 11.7213 12.0283 12.1051 12.0107 12.1403C11.9639 12.2311 11.9697 12.4596 12.0225 12.5592C12.1133 12.7321 12.3096 12.8199 12.5205 12.7819C12.5762 12.7701 12.6904 12.7057 12.7754 12.6383C13.1064 12.3746 13.3115 12.2926 13.6631 12.2926C14.1641 12.2926 14.6006 12.5621 14.8203 13.0104C15.0078 13.3883 15.0078 13.778 14.8174 14.1676C14.7324 14.3434 14.5537 14.5338 12.6846 16.4C11.5625 17.5221 10.5869 18.4772 10.5166 18.5211C10.3086 18.65 10.083 18.7145 9.83691 18.7174C9.55859 18.7203 9.34473 18.6588 9.11914 18.5123C8.90234 18.3717 8.75879 18.2018 8.63281 17.9323C8.54199 17.7448 8.53613 17.7096 8.53613 17.4225C8.53613 17.1266 8.53906 17.1061 8.64746 16.8834C8.75 16.6696 8.80859 16.5992 9.35938 16.0426L9.96289 15.4362L9.67285 15.149C9.36523 14.8414 9.18945 14.6129 8.98145 14.2496L8.85547 14.0299L8.1377 14.736C7.66309 15.2047 7.37598 15.5153 7.28516 15.65C6.91016 16.2184 6.73438 16.7867 6.73438 17.4225C6.73438 18.8346 7.67188 20.0475 9.04297 20.4166C9.33301 20.4928 10.0098 20.5221 10.3291 20.4694C10.8008 20.3932 11.2812 20.191 11.6562 19.9098C11.7822 19.816 12.793 18.8229 14 17.61C15.9307 15.6705 16.1387 15.4537 16.2529 15.2487C16.7568 14.3434 16.8799 13.4264 16.6045 12.6061C16.4346 12.0992 16.1973 11.736 15.7637 11.3258C15.2422 10.8307 14.6064 10.5553 13.9121 10.5201L13.6045 10.5026L12.8252 11.2906Z" fill="white"/>
</g>
<defs>
<clipPath id="clip0_1134_3783">
<rect width="14.5368" height="14.992" fill="white" transform="translate(5.73438 5.50391)"/>
</clipPath>
</defs>
</svg>
